<?xml version="1.0" encoding="UTF-8"?>
<svg xmlns="http://www.w3.org/2000/svg" xmlns:xlink="http://www.w3.org/1999/xlink" viewBox="0 0 227.57 58.7">
  <defs>
    <linearGradient id="linear-gradient" x1="46.26" y1="19143.36" x2="5.62" y2="19102.72" gradientTransform="translate(0 -19093.69)" gradientUnits="userSpaceOnUse">
      <stop offset="0" stop-color="#ff7f15"/>
      <stop offset=".14" stop-color="#f8781b"/>
      <stop offset=".35" stop-color="#e7642f"/>
      <stop offset=".59" stop-color="#cb444f"/>
      <stop offset=".86" stop-color="#a5197a"/>
      <stop offset="1" stop-color="#8f0094"/>
    </linearGradient>
  </defs>
  <g id="Layer_2" data-name="Layer 2">
    <g id="Wide-Primary-DarkText">
      <g>
        <path d="M17.8,36.7H5.4c0,.1.1.2.1.3h.1l.1.2h12.3l-.2-.5h0ZM20,43.1H7.7l.2.6h12.4l-.3-.6ZM19.3,41H6.9l.2.6h12.4l-.2-.6ZM18.5,38.8H6.2l.2.6h12.4l-.3-.6h0ZM16.1,32.4H2.8c.2.2.3.4.5.6h13.2c-.1-.2-.3-.4-.4-.6h0ZM17,34.5H4.4c.1.2.2.4.3.6h12.6l-.3-.6h0ZM20.8,45.3h-12.4l.2.6h12.4c0-.1-.2-.6-.2-.6ZM25.3,56h-13.1c.1.2.2.4.3.6h13.3c-.2-.2-.3-.4-.5-.6h0ZM12,30.2H0c.3.2.6.4.9.6h13.4c-.7-.3-1.5-.6-2.3-.6ZM23.9,53.8h-12.5l.2.6h12.6c-.1-.2-.2-.4-.3-.6ZM21.5,47.4h-12.4l.2.6h12.4l-.2-.6ZM22.3,49.5h-12.4l.2.6h12.4l-.2-.6ZM23,51.7h-12.4l.2.6h12.4l-.2-.6h0ZM48.6,30.2h-8.8c-2.1,0-4,1.3-4.7,3.3l-6.6,19.1c-.9,2.3-1.7,5.4-4.3,5.5h-9.9c.7.4,1.5.6,2.4.6h18.5c2.1,0,4-1.3,4.7-3.2l6.4-18.4.1-.1c1-2.9,2.8-5.3,5.5-6.7l-3.3-.1h0ZM18,21.4H5.6l-.1.2-.1.1c0,.1-.1.2-.1.3h12.4l.3-.6h0ZM20.2,15H7.9l-.2.6h12.3l.2-.6h0ZM19.5,17.1H7.1l-.2.6h12.4l.2-.6h0ZM18.7,19.3H6.4l-.2.6h12.4l.1-.6ZM16.5,25.7H3.3c-.2.2-.3.4-.5.6h13.3c.2-.2.3-.4.4-.6h0ZM17.2,23.6H4.7c-.1.2-.2.4-.3.6h12.6l.2-.6h0ZM21,12.9h-12.4l-.2.6h12.4l.2-.6h0ZM25.8,2.1h-13.3c-.1.2-.2.4-.3.6h13.1c.2-.2.3-.4.5-.6h0ZM14.3,27.9H.9c-.3.2-.6.4-.9.6h12c.8-.1,1.6-.3,2.3-.6ZM24.2,4.3h-12.6l-.2.6h12.5c.1-.2.2-.4.3-.6ZM21.7,10.7h-12.3l-.2.6h12.4l.1-.6ZM22.5,8.6h-12.4l-.2.5h12.4l.2-.5ZM23.2,6.4h-12.4l-.2.6h12.4l.2-.6h0ZM51.8,28.5c-2.7-1.4-4.5-3.8-5.5-6.7l-.1-.1-6.4-18.5C39.2,1.3,37.3,0,35.1,0h-18.5C15.8,0,15,.2,14.3.6h9.8c2.6.1,3.4,3.2,4.3,5.5l6.7,19.1c.7,2,2.6,3.3,4.7,3.3,0,0,12,0,12,0Z" style="fill: url(#linear-gradient);"/>
        <g>
          <path d="M66.08,38.36c-.8,0-1.4-.2-1.8-.6s-.6-1-.6-1.8V9.26c0-.8.2-1.4.6-1.8s1-.6,1.8-.6h15.8c.7,0,1.1.1,1.4.5s.5.8.5,1.4-.2,1.1-.5,1.4c-.3.3-.8.5-1.4.5h-13.6v10h12.8c.6,0,1.1.1,1.4.5.3.3.5.8.5,1.4s-.2,1.1-.5,1.4-.8.5-1.4.5h-12.8v11.7c0,1.4-.8,2.2-2.2,2.2Z" style="fill: #515151;"/>
          <path d="M104.28,38.46c-3,0-5.5-.7-7.7-2s-3.9-3.2-5.1-5.6-1.8-5.2-1.8-8.5c0-2.5.3-4.7,1-6.6.7-2,1.7-3.6,2.9-5.1,1.3-1.4,2.8-2.5,4.6-3.2,1.8-.7,3.8-1.1,6.1-1.1,3,0,5.6.6,7.8,1.9,2.2,1.3,3.9,3.2,5.1,5.6s1.8,5.2,1.8,8.5c0,2.5-.3,4.7-1,6.7s-1.7,3.7-2.9,5.1c-1.3,1.4-2.8,2.5-4.6,3.2s-4,1.1-6.2,1.1h0ZM104.28,34.46c2.1,0,3.8-.5,5.3-1.4s2.6-2.3,3.4-4.1,1.2-4,1.2-6.5c0-3.8-.9-6.8-2.6-8.9s-4.1-3.1-7.3-3.1c-2.1,0-3.8.5-5.3,1.4s-2.6,2.3-3.4,4.1c-.8,1.8-1.2,4-1.2,6.5,0,3.8.9,6.7,2.6,8.9,1.8,2,4.2,3.1,7.3,3.1h0Z" style="fill: #515151;"/>
          <path d="M129.28,38.36c-.7,0-1.3-.2-1.7-.6-.4-.4-.6-1-.6-1.7V9.16c0-.8.2-1.4.6-1.8s1-.6,1.7-.6h10.6c3.4,0,6,.8,7.8,2.4s2.8,3.9,2.8,6.8c0,1.9-.4,3.5-1.2,4.9s-2,2.4-3.6,3.1-3.5,1.1-5.7,1.1l.4-.6h1.1c1.2,0,2.2.3,3.1.9s1.7,1.5,2.4,2.8l3.8,7.1c.3.5.4,1,.4,1.5s-.2.9-.5,1.2-.8.4-1.4.4-1.2-.1-1.6-.4-.8-.7-1.1-1.3l-4.7-8.6c-.6-1.2-1.3-1.9-2.1-2.3-.8-.4-1.9-.6-3.1-.6h-5v10.9c0,.7-.2,1.3-.6,1.7-.5.4-1.1.6-1.8.6h0ZM131.58,21.66h7.6c2.2,0,3.9-.5,5.1-1.4s1.7-2.4,1.7-4.2-.6-3.2-1.7-4.2-2.9-1.4-5.1-1.4h-7.6v11.2h0Z" style="fill: #515151;"/>
          <path d="M168.88,38.36c-.7,0-1.3-.2-1.7-.6-.4-.4-.6-1-.6-1.7V10.66h-9.4c-.6,0-1.1-.2-1.5-.5s-.5-.8-.5-1.4.2-1.1.5-1.4c.4-.3.8-.5,1.5-.5h23.4c.6,0,1.1.2,1.5.5s.5.8.5,1.4-.2,1.1-.5,1.4c-.4.3-.9.5-1.5.5h-9.4v25.4c0,.7-.2,1.3-.6,1.7-.4.4-1,.6-1.7.6h0Z" style="fill: #515151;"/>
          <path d="M191.08,38.36c-.7,0-1.3-.2-1.7-.6-.4-.4-.6-1-.6-1.7V8.86c0-.8.2-1.4.6-1.8s1-.6,1.7-.6,1.3.2,1.7.6c.4.4.6,1,.6,1.8v11.5h17.5v-11.5c0-.8.2-1.4.6-1.8.4-.4,1-.6,1.7-.6s1.3.2,1.7.6c.4.4.6,1,.6,1.8v27.2c0,.7-.2,1.3-.6,1.7-.4.4-.9.6-1.7.6s-1.3-.2-1.7-.6c-.4-.4-.6-1-.6-1.7v-11.9h-17.5v11.9c0,.7-.2,1.3-.6,1.7-.3.4-.9.6-1.7.6h0Z" style="fill: #515151;"/>
        </g>
      </g>
      <g style="isolation: isolate;">
        <text transform="translate(218.72 12.1)" style="fill: #515151; font-family: ArialMT, Arial; font-size: 12px; isolation: isolate;"><tspan x="0" y="0">®</tspan></text>
      </g>
    </g>
  </g>
  <g id="Layer_3" data-name="Layer 3">
    <g>
      <path d="M62.31,55.86l3.96-10.09h2.1l3.97,10.09h-1.77l-.9-2.34h-4.78l-.9,2.34h-1.69ZM65.43,52.12h3.71l-1.13-2.96c-.03-.09-.07-.21-.13-.37-.06-.16-.12-.33-.18-.51-.06-.19-.13-.38-.19-.57-.06-.19-.12-.37-.17-.52h-.09c-.06.19-.13.41-.22.66-.09.25-.17.5-.26.74s-.15.43-.21.57l-1.12,2.96Z" style="fill: #515151;"/>
      <path d="M77.8,56.03c-.75,0-1.35-.2-1.81-.6-.46-.4-.69-1.08-.69-2.04v-5.28h1.53v5.05c0,.29.04.54.11.74.07.2.18.35.32.47.14.12.3.2.49.25.19.05.39.07.62.07.35,0,.67-.09.96-.26.29-.17.52-.41.7-.72.18-.31.26-.66.26-1.07v-4.53h1.53v7.74h-1.25l-.13-1.1h-.1c-.19.29-.41.52-.66.71-.26.19-.54.33-.85.43s-.65.15-1.02.15Z" style="fill: #515151;"/>
      <path d="M87.77,56.03c-.44,0-.79-.09-1.04-.26-.25-.17-.43-.39-.53-.66-.1-.27-.15-.56-.15-.86v-4.87h-.97v-1.26h1l.28-2.16h1.22v2.16h1.4v1.26h-1.4v4.69c0,.23.05.4.15.51.1.12.26.18.49.18h.76v1.03c-.1.04-.22.08-.36.11-.14.03-.29.06-.43.09-.15.02-.28.04-.41.04Z" style="fill: #515151;"/>
      <path d="M95.69,56.03c-.8,0-1.48-.15-2.04-.43-.55-.29-.97-.73-1.25-1.33-.28-.6-.42-1.36-.42-2.28s.14-1.69.42-2.29c.28-.59.7-1.03,1.25-1.32.55-.29,1.23-.43,2.04-.43s1.51.14,2.06.43c.55.29.96.73,1.24,1.32.28.59.42,1.36.42,2.29s-.14,1.68-.42,2.28-.69,1.04-1.24,1.33-1.24.43-2.06.43ZM95.69,54.77c.49,0,.89-.1,1.21-.29.31-.19.55-.48.7-.88.15-.39.23-.89.23-1.49v-.26c0-.6-.08-1.09-.23-1.49-.15-.39-.39-.68-.7-.88-.31-.19-.72-.29-1.21-.29s-.88.1-1.19.29c-.31.19-.55.48-.7.88-.15.39-.23.89-.23,1.49v.26c0,.6.08,1.09.23,1.49.15.39.38.68.7.88.31.19.71.29,1.19.29Z" style="fill: #515151;"/>
      <path d="M103.03,55.86v-7.74h1.27l.13,1.1h.1c.18-.28.38-.52.61-.71.23-.19.49-.33.78-.43.29-.1.6-.15.93-.15.48,0,.9.1,1.26.29.36.2.63.53.82.99h.1c.18-.27.38-.51.62-.7s.5-.34.8-.43c.3-.1.62-.15.96-.15.46,0,.87.08,1.22.24.35.16.63.43.84.81.21.38.31.88.31,1.51v5.36h-1.53v-5.08c0-.29-.03-.54-.1-.73-.07-.19-.16-.34-.28-.46s-.26-.19-.43-.24c-.17-.05-.35-.07-.54-.07-.32,0-.61.09-.87.26-.26.17-.46.41-.62.71-.16.3-.24.66-.24,1.07v4.53h-1.53v-5.08c0-.29-.03-.54-.1-.73-.07-.19-.16-.34-.28-.46s-.26-.19-.43-.24c-.17-.05-.34-.07-.53-.07-.32,0-.62.09-.88.26-.26.17-.48.41-.63.71-.16.3-.24.66-.24,1.07v4.53h-1.53Z" style="fill: #515151;"/>
      <path d="M119.7,56.03c-.25,0-.51-.03-.79-.09-.28-.06-.55-.17-.8-.32-.25-.16-.45-.38-.61-.65-.16-.28-.24-.65-.24-1.1,0-.53.12-.97.37-1.31.25-.34.59-.61,1.03-.81s.97-.33,1.58-.41c.61-.08,1.28-.12,2.01-.12v-.77c0-.25-.04-.48-.12-.68s-.24-.35-.46-.46c-.22-.11-.54-.16-.95-.16s-.73.05-.96.16c-.23.1-.39.23-.49.38-.09.15-.14.32-.14.49v.22h-1.47s-.01-.1-.01-.15v-.18c0-.46.13-.85.39-1.17s.62-.56,1.1-.73c.47-.17,1.02-.25,1.63-.25.67,0,1.22.1,1.67.29.45.19.78.46,1.01.82.22.35.34.78.34,1.28v3.93c0,.19.05.32.14.4.09.08.2.12.33.12h.53v1.03c-.12.05-.26.1-.44.15-.18.05-.38.07-.62.07-.26,0-.49-.05-.67-.14-.18-.09-.33-.23-.44-.4-.11-.17-.19-.37-.23-.58h-.09c-.18.23-.39.42-.64.6s-.54.3-.86.4c-.32.09-.69.14-1.09.14ZM120.12,54.77c.3,0,.59-.05.85-.14.26-.09.48-.23.67-.4.19-.17.33-.38.44-.62.11-.24.16-.5.16-.79v-.52c-.68,0-1.27.04-1.78.12s-.91.22-1.19.43-.43.5-.43.88c0,.23.05.41.15.57.1.15.25.27.44.35.2.08.43.12.69.12Z" style="fill: #515151;"/>
      <path d="M129.82,56.03c-.44,0-.79-.09-1.04-.26-.25-.17-.43-.39-.53-.66-.1-.27-.15-.56-.15-.86v-4.87h-.97v-1.26h1l.28-2.16h1.22v2.16h1.4v1.26h-1.4v4.69c0,.23.05.4.15.51.1.12.26.18.49.18h.76v1.03c-.1.04-.22.08-.36.11-.14.03-.29.06-.43.09-.15.02-.29.04-.41.04Z" style="fill: #515151;"/>
      <path d="M137.65,56.03c-.79,0-1.46-.15-1.99-.43s-.94-.73-1.21-1.33-.41-1.36-.41-2.28.14-1.69.41-2.29c.27-.59.68-1.03,1.22-1.32.54-.29,1.21-.43,2.02-.43.74,0,1.35.14,1.85.42.5.28.87.7,1.13,1.27.25.57.38,1.28.38,2.15v.59h-5.43c.02.55.1,1.01.25,1.38.15.37.37.64.67.81s.68.26,1.14.26c.28,0,.54-.04.76-.11.23-.07.42-.18.57-.32.16-.14.28-.31.37-.51.09-.2.13-.43.13-.68h1.5c0,.46-.08.87-.24,1.22-.16.35-.38.65-.68.89-.3.24-.66.42-1.07.55-.41.13-.87.19-1.37.19ZM135.63,51.25h3.79c0-.38-.04-.7-.12-.96-.08-.26-.2-.47-.36-.64-.16-.17-.34-.29-.56-.36-.22-.07-.46-.11-.74-.11-.41,0-.76.07-1.05.22-.29.15-.51.38-.67.68-.16.31-.25.7-.29,1.17Z" style="fill: #515151;"/>
    </g>
  </g>
</svg>