<?xml version="1.0" encoding="UTF-8"?>
<svg id="Layer_2" data-name="Layer 2" xmlns="http://www.w3.org/2000/svg" xmlns:xlink="http://www.w3.org/1999/xlink" viewBox="0 0 227.57 58.7">
  <defs>
    <linearGradient id="linear-gradient" x1="46.26" y1="-4686.67" x2="5.62" y2="-4646.03" gradientTransform="translate(0 -4637) scale(1 -1)" gradientUnits="userSpaceOnUse">
      <stop offset="0" stop-color="#ff7f15"/>
      <stop offset=".14" stop-color="#f8781b"/>
      <stop offset=".35" stop-color="#e7642f"/>
      <stop offset=".59" stop-color="#cb444f"/>
      <stop offset=".86" stop-color="#a5197a"/>
      <stop offset="1" stop-color="#8f0094"/>
    </linearGradient>
  </defs>
  <g id="Wide-Primary-DarkText">
    <g>
      <path d="M17.8,36.7H5.4c0,.1.1.2.1.3h.1l.1.2h12.3l-.2-.5h0ZM20,43.1H7.7l.2.6h12.4l-.3-.6ZM19.3,41H6.9l.2.6h12.4l-.2-.6ZM18.5,38.8H6.2l.2.6h12.4l-.3-.6h0ZM16.1,32.4H2.8c.2.2.3.4.5.6h13.2c-.1-.2-.3-.4-.4-.6h0ZM17,34.5H4.4c.1.2.2.4.3.6h12.6l-.3-.6h0ZM20.8,45.3h-12.4l.2.6h12.4c0-.1-.2-.6-.2-.6ZM25.3,56h-13.1c.1.2.2.4.3.6h13.3c-.2-.2-.3-.4-.5-.6h0ZM12,30.2H0c.3.2.6.4.9.6h13.4c-.7-.3-1.5-.6-2.3-.6ZM23.9,53.8h-12.5l.2.6h12.6c-.1-.2-.2-.4-.3-.6ZM21.5,47.4h-12.4l.2.6h12.4l-.2-.6ZM22.3,49.5h-12.4l.2.6h12.4l-.2-.6ZM23,51.7h-12.4l.2.6h12.4l-.2-.6h0ZM48.6,30.2h-8.8c-2.1,0-4,1.3-4.7,3.3l-6.6,19.1c-.9,2.3-1.7,5.4-4.3,5.5h-9.9c.7.4,1.5.6,2.4.6h18.5c2.1,0,4-1.3,4.7-3.2l6.4-18.4.1-.1c1-2.9,2.8-5.3,5.5-6.7l-3.3-.1h0ZM18,21.4H5.6l-.1.2-.1.1c0,.1-.1.2-.1.3h12.4l.3-.6h0ZM20.2,15H7.9l-.2.6h12.3l.2-.6h0ZM19.5,17.1H7.1l-.2.6h12.4l.2-.6h0ZM18.7,19.3H6.4l-.2.6h12.4l.1-.6ZM16.5,25.7H3.3c-.2.2-.3.4-.5.6h13.3c.2-.2.3-.4.4-.6h0ZM17.2,23.6H4.7c-.1.2-.2.4-.3.6h12.6l.2-.6h0ZM21,12.9h-12.4l-.2.6h12.4l.2-.6h0ZM25.8,2.1h-13.3c-.1.2-.2.4-.3.6h13.1c.2-.2.3-.4.5-.6h0ZM14.3,27.9H.9c-.3.2-.6.4-.9.6h12c.8-.1,1.6-.3,2.3-.6ZM24.2,4.3h-12.6l-.2.6h12.5c.1-.2.2-.4.3-.6ZM21.7,10.7h-12.3l-.2.6h12.4l.1-.6ZM22.5,8.6h-12.4l-.2.5h12.4l.2-.5ZM23.2,6.4h-12.4l-.2.6h12.4l.2-.6h0ZM51.8,28.5c-2.7-1.4-4.5-3.8-5.5-6.7l-.1-.1-6.4-18.5c-.6-1.9-2.5-3.2-4.7-3.2h-18.5c-.8,0-1.6.2-2.3.6h9.8c2.6.1,3.4,3.2,4.3,5.5l6.7,19.1c.7,2,2.6,3.3,4.7,3.3h12Z" style="fill: url(#linear-gradient); stroke-width: 0px;"/>
      <g>
        <path d="M67.5,44.6c-.8,0-1.4-.2-1.8-.6s-.6-1-.6-1.8V15.5c0-.8.2-1.4.6-1.8s1-.6,1.8-.6h15.8c.7,0,1.1.1,1.4.5s.5.8.5,1.4-.2,1.1-.5,1.4c-.3.3-.8.5-1.4.5h-13.6v10h12.8c.6,0,1.1.1,1.4.5.3.3.5.8.5,1.4s-.2,1.1-.5,1.4-.8.5-1.4.5h-12.8v11.7c0,1.4-.8,2.2-2.2,2.2Z" style="fill: #515151; stroke-width: 0px;"/>
        <path d="M105.7,44.7c-3,0-5.5-.7-7.7-2s-3.9-3.2-5.1-5.6-1.8-5.2-1.8-8.5c0-2.5.3-4.7,1-6.6.7-2,1.7-3.6,2.9-5.1,1.3-1.4,2.8-2.5,4.6-3.2,1.8-.7,3.8-1.1,6.1-1.1,3,0,5.6.6,7.8,1.9,2.2,1.3,3.9,3.2,5.1,5.6s1.8,5.2,1.8,8.5c0,2.5-.3,4.7-1,6.7s-1.7,3.7-2.9,5.1c-1.3,1.4-2.8,2.5-4.6,3.2s-4,1.1-6.2,1.1h0ZM105.7,40.7c2.1,0,3.8-.5,5.3-1.4s2.6-2.3,3.4-4.1,1.2-4,1.2-6.5c0-3.8-.9-6.8-2.6-8.9s-4.1-3.1-7.3-3.1c-2.1,0-3.8.5-5.3,1.4s-2.6,2.3-3.4,4.1c-.8,1.8-1.2,4-1.2,6.5,0,3.8.9,6.7,2.6,8.9,1.8,2,4.2,3.1,7.3,3.1h0Z" style="fill: #515151; stroke-width: 0px;"/>
        <path d="M130.7,44.6c-.7,0-1.3-.2-1.7-.6-.4-.4-.6-1-.6-1.7V15.4c0-.8.2-1.4.6-1.8s1-.6,1.7-.6h10.6c3.4,0,6,.8,7.8,2.4s2.8,3.9,2.8,6.8c0,1.9-.4,3.5-1.2,4.9s-2,2.4-3.6,3.1-3.5,1.1-5.7,1.1l.4-.6h1.1c1.2,0,2.2.3,3.1.9s1.7,1.5,2.4,2.8l3.8,7.1c.3.5.4,1,.4,1.5s-.2.9-.5,1.2-.8.4-1.4.4-1.2-.1-1.6-.4-.8-.7-1.1-1.3l-4.7-8.6c-.6-1.2-1.3-1.9-2.1-2.3-.8-.4-1.9-.6-3.1-.6h-5v10.9c0,.7-.2,1.3-.6,1.7-.5.4-1.1.6-1.8.6h0ZM133,27.9h7.6c2.2,0,3.9-.5,5.1-1.4s1.7-2.4,1.7-4.2-.6-3.2-1.7-4.2-2.9-1.4-5.1-1.4h-7.6v11.2h0Z" style="fill: #515151; stroke-width: 0px;"/>
        <path d="M170.3,44.6c-.7,0-1.3-.2-1.7-.6-.4-.4-.6-1-.6-1.7v-25.4h-9.4c-.6,0-1.1-.2-1.5-.5s-.5-.8-.5-1.4.2-1.1.5-1.4c.4-.3.8-.5,1.5-.5h23.4c.6,0,1.1.2,1.5.5s.5.8.5,1.4-.2,1.1-.5,1.4c-.4.3-.9.5-1.5.5h-9.4v25.4c0,.7-.2,1.3-.6,1.7-.4.4-1,.6-1.7.6h0Z" style="fill: #515151; stroke-width: 0px;"/>
        <path d="M192.5,44.6c-.7,0-1.3-.2-1.7-.6-.4-.4-.6-1-.6-1.7V15.1c0-.8.2-1.4.6-1.8s1-.6,1.7-.6,1.3.2,1.7.6c.4.4.6,1,.6,1.8v11.5h17.5v-11.5c0-.8.2-1.4.6-1.8.4-.4,1-.6,1.7-.6s1.3.2,1.7.6c.4.4.6,1,.6,1.8v27.2c0,.7-.2,1.3-.6,1.7-.4.4-.9.6-1.7.6s-1.3-.2-1.7-.6c-.4-.4-.6-1-.6-1.7v-11.9h-17.5v11.9c0,.7-.2,1.3-.6,1.7-.3.4-.9.6-1.7.6h0Z" style="fill: #515151; stroke-width: 0px;"/>
      </g>
    </g>
    <text transform="translate(218.72 19.83)" style="fill: #515151; font-family: ArialMT, Arial; font-size: 12px; isolation: isolate;"><tspan x="0" y="0">®</tspan></text>
  </g>
</svg>